<?xml version="1.0" encoding="utf-8"?>
<!-- Generator: Adobe Illustrator 25.0.0, SVG Export Plug-In . SVG Version: 6.00 Build 0)  -->
<svg version="1.1" id="Layer_1" xmlns="http://www.w3.org/2000/svg" xmlns:xlink="http://www.w3.org/1999/xlink" x="0px" y="0px"
	 viewBox="0 0 122.3 109" style="enable-background:new 0 0 122.3 109;" xml:space="preserve">
<style type="text/css">
	.st0{fill:#303030;}
</style>
<path class="st0" d="M105.2,61.9c-0.3,0.4-0.7,0.9-1.2,1.3c-0.9-0.2-1.6-0.4-2.5-0.6c0,9.2,0,18.3,0,27.6c1.6,0.1,3.2,0.2,4.7,0.3
	c0.9,1.4,0.9,1.4-0.1,2.7c-30.5,0-61,0-91.5,0c-1-1.2-1-1.2-0.1-2.7c1.4-0.1,3-0.2,4.5-0.2c0.4-1.4,0.5-25.9,0.1-27.6
	c-0.7,0.2-1.4,0.4-2.3,0.6c-0.4-0.4-0.9-0.9-1.2-1.3c0.2-1.4,1.1-1.7,1.9-2c5.4-2,10.8-3.9,16.2-5.9c1.4-0.5,2.7-1,4.3-1.5
	c0.5,0.5,0.9,0.9,1.3,1.3c-0.1,1.4-1,1.7-1.9,2c-4.4,1.6-8.9,3.2-13.3,4.8c-0.6,0.2-1.1,0.4-1.7,0.7c0,9.6,0,19.1,0,28.8
	c6.5,0,12.9,0,19.5,0c0.1-0.6,0.2-1.3,0.2-1.9c0-12.7,0-25.3,0-38c0-0.5-0.1-0.9-0.1-1.6c-1,0.6-1.8,1.8-3.3,0.9
	c-0.1-0.4-0.4-1-0.4-1.6c-0.1-2.1,0-4.2,0-6.4c0-1,0.5-1.7,1.2-2.3c4.5-4.1,9.1-8.2,13.6-12.3c1.9-1.8,3.9-3.5,5.8-5.3
	c0-1.8,0-3.6,0-5.5c-1-0.1-2-0.1-2.8-0.2c-0.9-0.6-0.9-1.4-0.6-2.1c0.9-1,2.2-0.4,3.5-0.9c0-0.6,0-1.2,0-1.7c0.1-1.5,0.4-1.8,2-1.8
	c1.6,0.8,0.5,2.4,1.1,3.6c1.1,0.2,2.1,0.3,3.1,0.5c0.5,1.3,0.5,1.3-0.2,2.5c-0.9,0.1-1.8,0.1-2.9,0.2c-0.3,1.8,0,3.6-0.1,5.4
	c3.2,2.9,6.4,5.8,9.6,8.7c3.3,3,6.5,6,9.8,8.9c0.9,0.8,1.4,1.7,1.3,3c-0.1,1.9,0,3.8,0,5.6c0,0.8-0.1,1.5-0.8,1.9
	c-1.2,0.6-1.9-0.3-2.6-0.9c-0.1,0.1-0.2,0.1-0.2,0.1c0,0-0.1,0.1-0.1,0.1c0,13.3-0.1,26.7-0.1,40c0,0.4,0.1,0.7,0.2,1.2
	c6.5,0,12.9,0,19.5,0c0-9.6,0-19.1,0-28.8c-0.5-0.2-1-0.4-1.6-0.6c-4.5-1.6-9-3.3-13.5-4.9c-0.8-0.3-1.7-0.5-1.9-1.9
	c0.3-0.3,0.7-0.9,1.1-1.4c0.8,0.2,1.3,0.4,1.9,0.6c6.2,2.3,12.4,4.5,18.6,6.8C104,60.3,104.9,60.5,105.2,61.9z M75.9,90.2
	c0-14.9,0-29.6,0-44.5c-5.1-4.6-10.2-9.3-15.4-14c-5.3,4.8-10.4,9.4-15.4,14c0,14.9,0,29.7,0,44.5c2.1,0,4.2,0,6.3,0
	c0-0.7,0.1-1.3,0.1-1.9c0-3.5,0-6.9,0-10.4c0-0.8,0.1-1.7,0.2-2.5c0.6-3.6,2.7-6.1,6.1-7.1c3.4-1,6.5-0.3,9,2.2
	c1.9,1.9,2.6,4.3,2.7,6.9c0,3.6,0,7.3,0,10.9c0,0.6,0.1,1.3,0.1,1.9C71.8,90.2,73.8,90.2,75.9,90.2z M79.7,41.6
	C73.2,35.8,66.9,30,60.5,24.2C54,30.1,47.6,35.9,41.3,41.6c0,1.1,0,2.2,0,3.6c6.3-5.7,12.4-11.3,18.5-16.8c1.3,0,1.3,0,1.9,0.5
	c1,0.8,1.9,1.7,2.8,2.5c4.5,4.1,8.9,8.1,13.4,12.2c0.5,0.4,1,0.9,1.7,1.4C79.7,43.8,79.7,42.7,79.7,41.6z M58.9,71
	c-3.1,1.1-4.5,3-4.5,6.2c0,3.9,0,7.9,0,11.8c0,0.4,0.1,0.8,0.1,1.3c1.5,0,2.9,0,4.4,0C58.9,83.8,58.9,77.4,58.9,71z M62.1,70.9
	c-0.3,3-0.2,18,0.1,19.3c1.4,0,2.8,0.3,4.3-0.2c0-4.7,0.1-9.3-0.1-13.8C66.4,73.7,64.8,71.8,62.1,70.9z"/>
<path class="st0" d="M36.9,81.8c-3.1,0-6,0-8.9,0c-0.9-0.5-1-1.3-1-2.1c0-3.4,0-6.8,0-10.1c0-3.2,2.2-5.6,5.2-5.6
	c2.9,0,5.2,2.3,5.3,5.5c0.1,3.4,0,6.9,0,10.3c0,0.2,0,0.5-0.1,0.7C37.3,81,37.1,81.3,36.9,81.8z M34.6,78.9c0-3.4,0-6.5,0-9.6
	c0-1.4-1-2.3-2.3-2.3c-1.3,0-2.3,0.9-2.3,2.5c0,1.9,0,3.7,0,5.6c0,1.3,0,2.5,0,3.9C31.5,78.9,33,78.9,34.6,78.9z"/>
<path class="st0" d="M93.3,81.8c-3.3,0-6.2,0-9.4,0c-0.2-0.7-0.5-1.4-0.5-2.1c0-3.4,0-6.8,0-10.1c0-1.7,0.5-3.2,1.9-4.3
	c1.6-1.3,3.3-1.7,5.2-0.9c2,0.8,3.2,2.4,3.3,4.6c0.1,3.7,0.1,7.5,0,11.2C93.9,80.7,93.5,81.3,93.3,81.8z M90.9,78.9
	c0-3.4,0.1-6.7,0-10c0-1.1-1-1.9-2-2c-1.4-0.1-2.5,0.9-2.5,2.5c-0.1,1.6,0,3.3,0,4.9c0,1.5,0,3,0,4.6C87.9,78.9,89.4,78.9,90.9,78.9
	z"/>
<path class="st0" d="M60.5,45.5c1.6-0.8,3.2-1.1,4.8-0.5c4,1.3,5.4,6,2.8,9.2c-1.2,1.4-2.6,2.7-3.9,4c-0.8,0.8-1.5,1.6-2.3,2.3
	c-1.1,1-1.8,1-2.8,0c-1.9-1.9-3.9-3.8-5.8-5.8c-2.1-2.2-2.4-5.1-0.8-7.5c1.5-2.3,4.4-3.1,7.2-2.1C59.9,45.2,60.2,45.3,60.5,45.5z
	 M60.4,57.7c1.9-1.9,3.8-3.6,5.5-5.5c1-1.1,0.9-2.5-0.1-3.6c-0.9-1-2.6-1.4-3.8-0.6c-1.2,0.9-2.1,0.8-3.2,0
	c-1.2-0.9-2.9-0.5-3.8,0.6c-0.9,1.1-1,2.5,0,3.6C56.7,54.1,58.6,55.9,60.4,57.7z"/>
</svg>
