<?xml version="1.0" encoding="utf-8"?>
<!-- Generator: Adobe Illustrator 25.0.0, SVG Export Plug-In . SVG Version: 6.00 Build 0)  -->
<svg version="1.1" id="Layer_1" xmlns="http://www.w3.org/2000/svg" xmlns:xlink="http://www.w3.org/1999/xlink" x="0px" y="0px"
	 viewBox="0 0 122.3 109" style="enable-background:new 0 0 122.3 109;" xml:space="preserve">
<style type="text/css">
	.st0{fill:#303030;}
</style>
<g>
	<path class="st0" d="M45,28.9c0-4.4,0-8.7,0-12.9c0-0.5,0-0.9,0-1.4c0.1-1,0.8-1.7,1.7-1.8c0.3,0,0.5,0,0.8,0c9.3,0,18.7,0,28,0
		c0.9,0,1.5,0.2,2.1,1.1c0,1.8,0,3.6,0,5.6c-0.4,0.2-0.7,0.4-1.2,0.5c-0.6,0.1-1.2,0-1.7-0.8c0-0.9,0-1.9,0-2.9
		c-1.6-0.3-23-0.4-26.5-0.1c0,19.1,0,38.2,0,57.5c5.1,0,10.2,0,15.3,0c0-3.2,0-6.4,0-9.5c0.4-0.4,0.7-0.7,1-1.1c3.3,0,6.6,0,9.8,0
		c0.1-0.1,0.2-0.2,0.2-0.2c0,0,0.1-0.1,0.1-0.2c0-0.1,0-0.3,0-0.4c0-12.1,0-24.1,0-36.2c0-0.1,0-0.1,0.1-0.3
		c0.8-0.9,1.6-0.7,2.7-0.1c0,0.9,0,1.9,0,3c0.5,0.3,0.8,0.7,1.3,0.9c3.7,2.1,7.1,4.6,9.9,7.8c4.1,4.7,7,10,8.4,16.1
		c0.5,2.2,0.7,4.4,0.9,6.6c0.2,2.2,0,4.5-0.2,6.7c-0.2,2.8-1,5.5-2.1,8.1c-1.7,4.4-4.1,8.4-7.3,11.8c-3.5,3.7-7.4,6.7-12,8.8
		c-2.8,1.2-5.6,2.2-8.6,2.6c-1.9,0.3-3.9,0.7-5.8,0.7c-8.2-0.1-15.8-2.3-22.4-7.3c-6.2-4.6-10.6-10.6-13-18c-0.7-2.3-1.3-4.6-1.6-7
		c-0.3-1.9-0.3-3.8-0.3-5.7c0.1-4.4,1-8.6,2.7-12.6c1.4-3.4,3.2-6.7,5.6-9.5c3.1-3.6,6.5-6.8,10.8-8.9C44.1,29.4,44.5,29.1,45,28.9z
		 M77.8,39.6c6.5,5.2,10.4,11.8,11,20.3c0.6,8.5-2.2,15.8-8.3,21.8C69.6,92.2,52.6,91.4,43,82.1c0-1.8,0.3-2.1,2-2.1
		c7.8,6.2,16.3,8.1,25.6,4.3c9.7-4,14.6-11.8,15.1-22.1c0.2-4.4-1-8.7-3.3-12.6c-1.3-2.1-2.6-4.1-4.8-5.7c0,7.2,0,14.2,0,20.6
		c-4.2,4.3-8.2,8.2-12.2,12.2c-6.4,0-12.9,0-19.6,0c-0.3-0.4-0.7-0.8-1.1-1.2c0-10.4,0-20.9,0-31.5c-3.9,3.5-6.2,7.7-7.3,12.6
		c-1.4,6.4-0.1,12.5,3,18.1c-0.4,1.1-1,1.7-2.2,1.7c-0.3-0.3-0.7-0.7-1-1.1c-2.2-3.9-3.4-8.1-3.6-12.5c-0.1-1.9,0-3.8,0.4-5.7
		c1.1-5.3,3.3-10.1,7.1-14c1.2-1.2,2.2-2.4,3.5-3.9c0-0.8,0-1.9,0-3c0-1.2,0.1-2.3-0.1-3.5C31,40.5,24.8,56.5,29.3,71.5
		c2.2,7.2,6.3,13.2,12.5,17.5c7.2,5.1,15.3,7.3,24.2,6c7.4-1,13.8-4.2,19.1-9.4c6.1-6,9.3-13.5,9.9-21.9c0.5-6.7-1.1-13-4.5-18.9
		c-3-5.2-7.2-9.4-12.7-12.4C77.8,34.9,77.8,37.1,77.8,39.6z M66.9,71c1.6-1.6,3.3-3.2,5-4.9c-1.7,0-3.3,0-5,0
		C66.9,67.8,66.9,69.4,66.9,71z"/>
	<path class="st0" d="M10,18.2c0.5-0.9,1.3-0.7,2-0.7c1,0.5,1.1,1.3,1.1,2.2c0,4.9,0,9.8,0,14.7c0,0.7,0,1.3,0,2.1
		c0.9,0,1.8,0,2.7,0c0-6.2,0-12.2,0-18.2c1.3-1.1,1.5-1.1,2.9-0.2c0,6,0,12.1,0,18.2c1,0.5,2,0.1,3.1,0.4c0-0.7,0.1-1.2,0.1-1.7
		c0-5,0-10.1,0-15.1c0-0.8,0-1.6,0.7-2.3c1-0.3,1.8-0.2,2.5,1.1c0,0.4,0,0.9,0,1.5c0,6.7-0.1,13.4,0,20.1c0.1,4.5-1.8,7.4-6,8.9
		c0,13.4,0,26.9,0,40.3c-1.3,1.6-1.7,1.7-3.2,0.2c0-13.4,0-26.9,0-40.5c-2.3-0.6-4-1.9-5.2-4c-0.5-0.9-0.8-1.8-0.8-2.8
		c0-8,0-15.9,0-23.9C9.9,18.4,10,18.3,10,18.2z M13.1,39.9c0,0.9,0,1.6,0,2.4c0,0.4,0.1,0.8,0.3,1.1c0.8,1.5,1.9,2.7,3.8,2.7
		c1.9,0,3.3-0.7,4.2-2.4c0.7-1.2,0.5-2.5,0.4-3.8C18.9,39.9,16.1,39.9,13.1,39.9z"/>
	<path class="st0" d="M111.1,90.7c-0.5,0-1,0-1.4,0c-1-0.7-1-1.7-1-2.7c0-7.2,0-14.3,0-21.5c0-3.8,0-7.5,0-11.5
		c-1.3,0-2.6,0-3.8-0.1c-3-0.1-5.8-2.8-5.8-5.9c0-5.2-0.1-10.5,0-15.7c0.1-3,1.2-5.9,2.7-8.5c1.5-2.5,3.5-4.6,5.9-6.3
		c0.5-0.4,1.1-0.7,1.7-1c0.8-0.3,1.7-0.4,2.4,0.7c0,0.5,0,1.2,0,1.8c0,22.6,0,45.2,0,67.8C111.9,88.8,112,89.9,111.1,90.7z
		 M108.4,52c0.1-0.2,0.3-0.3,0.3-0.5c0-9.8,0-19.7,0-29.8c-4,3.4-6.3,7.5-6.4,12.6c-0.1,4.7,0.1,9.4-0.1,14.1
		c-0.1,2.2,1.4,3.4,3.5,3.6C106.6,52.1,107.5,52,108.4,52z"/>
	<path class="st0" d="M57.5,21.1c0.7,0.2,1.4,0.2,2.1,0.5c0.6,0.2,1.1,0.6,1.6,0.9c0.8-0.4,1.6-0.8,2.5-1.1c3.7-1.1,6.6,2.3,6.8,5.1
		c0.1,2.2-0.6,4.1-2,5.8c-1.7,2-3.8,3.7-6.2,4.7c-0.7,0.3-1.2,0.3-1.9,0c-2.6-1.2-4.9-2.8-6.6-5.1c-1.3-1.8-2-3.8-1.6-5.9
		c0.4-2.3,1.7-3.9,4-4.7C56.6,21.3,57,21.2,57.5,21.1z M61.3,34.2c0.7-0.4,1.3-0.7,1.8-1.1c1.7-1.1,3.1-2.4,3.9-4.3
		c1-2.4-0.1-4.3-2.4-4.4c-1.7,0.4-1.7,2.6-3.7,2.6c-0.3-0.3-0.9-0.7-1.2-1.2c-0.5-0.8-1.3-1.3-2.1-1.5c-1.2,0.2-2,0.9-2.2,1.9
		c-0.3,1.4-0.2,2.7,0.8,3.9C57.5,31.9,59.3,33,61.3,34.2z"/>
	<path class="st0" d="M53,53.7c0.3-1.3,1.3-1.6,2.5-1.6c4.3,0,8.6,0,12.9,0c1.8,1.3,1.8,1.7,0.2,3.2c-4.4,0-8.9,0-13.4,0
		C54,55.3,53.3,54.8,53,53.7z"/>
	<path class="st0" d="M53.9,47.3c-1-1-1-1.8,0-2.7c5,0,10.1,0,15.4,0c0.1,0.4,0.4,0.9,0.4,1.3c0,0.5-0.3,0.9-0.4,1.4
		C64,47.3,59,47.3,53.9,47.3z"/>
</g>
</svg>
